<svg width="18" height="18" viewBox="0 0 18 18" fill="none" xmlns="http://www.w3.org/2000/svg">
<path d="M12.9375 13.5703H10.6523V11.9996C10.6121 12.0112 10.5717 12.0226 10.5313 12.0333C10.0305 12.1667 9.51514 12.2344 9 12.2344C8.48486 12.2344 7.96936 12.1667 7.46782 12.0331C7.42767 12.0224 7.38763 12.0112 7.34766 11.9997V13.5703H5.0625C4.15139 13.5703 3.41016 14.3115 3.41016 15.2227V17.4727C3.41016 17.7639 3.64627 18 3.9375 18H14.0625C14.3537 18 14.5898 17.7639 14.5898 17.4727V15.2227C14.5898 14.3115 13.8486 13.5703 12.9375 13.5703Z" fill="white"/>
<path d="M17.4727 2.25H15.7148V0.527344C15.7148 0.236109 15.4787 0 15.1875 0H2.8125C2.52127 0 2.28516 0.236109 2.28516 0.527344V2.25H0.527344C0.236109 2.25 0 2.48611 0 2.77734V5.58984C0 7.43143 1.49825 8.92969 3.33984 8.92969H4.63324C5.52417 9.99088 6.59355 10.7095 7.7393 11.0139C8.15228 11.1239 8.57644 11.1797 9 11.1797C9.42356 11.1797 9.84772 11.1239 10.2604 11.014C11.4065 10.7095 12.4759 9.99081 13.3668 8.92969H14.6602C16.5017 8.92969 18 7.43143 18 5.58984V2.77734C18 2.48611 17.7639 2.25 17.4727 2.25ZM3.33984 7.875C2.07981 7.875 1.05469 6.84988 1.05469 5.58984V3.30469H2.33814C2.54675 4.99658 3.08014 6.5752 3.87696 7.875H3.33984ZM3.33984 2.25V1.05469H14.6602V2.25H3.33984ZM16.9453 5.58984C16.9453 6.84988 15.9202 7.875 14.6602 7.875H14.123C14.9199 6.57517 15.4532 4.99655 15.6619 3.30469H16.9453V5.58984Z" fill="white"/>
</svg>
