<svg width="195" height="61" viewBox="0 0 195 61" fill="none" xmlns="http://www.w3.org/2000/svg">
<path d="M9.43052 8.40284V18.1107C9.43052 19.4579 9.04088 20.508 8.26161 21.2608C7.48234 22.0005 6.43891 22.3703 5.13131 22.3703C3.81051 22.3703 2.74066 21.9873 1.92177 21.2212C1.11608 20.4552 0.713233 19.3853 0.713233 18.0117H3.48692C3.50012 18.606 3.63881 19.0683 3.90297 19.3985C4.18034 19.7287 4.57658 19.8938 5.09169 19.8938C5.59359 19.8938 5.97663 19.7353 6.24079 19.4183C6.50495 19.1013 6.63703 18.6655 6.63703 18.1107V8.40284H9.43052ZM15.4398 10.6416V14.1087H20.0956V16.3078H15.4398V19.9731H20.6899V22.2316H12.6661V8.38303H20.6899V10.6416H15.4398ZM25.9446 8.40284V16.9616C25.9446 17.8994 26.189 18.6192 26.6777 19.1211C27.1663 19.6098 27.8532 19.8542 28.7381 19.8542C29.6362 19.8542 30.3297 19.6098 30.8184 19.1211C31.3071 18.6192 31.5514 17.8994 31.5514 16.9616V8.40284H34.3449V16.9418C34.3449 18.1173 34.0873 19.1145 33.5722 19.9334C33.0703 20.7391 32.3901 21.3467 31.5316 21.7561C30.6863 22.1656 29.7419 22.3703 28.6985 22.3703C27.6683 22.3703 26.7305 22.1656 25.8852 21.7561C25.0531 21.3467 24.3927 20.7391 23.904 19.9334C23.4153 19.1145 23.1709 18.1173 23.1709 16.9418V8.40284H25.9446ZM45.3062 22.2316L42.3146 17.5758L39.6004 22.2316H36.4701L40.8287 15.2578L36.4106 8.40284H39.6004L42.592 13.0389L45.2864 8.40284H48.4167L44.0779 15.3569L48.4959 22.2316H45.3062ZM60.1618 8.40284C61.6147 8.40284 62.8893 8.68681 63.9855 9.25476C65.095 9.8227 65.9469 10.635 66.5413 11.6916C67.1489 12.7351 67.4526 13.9502 67.4526 15.337C67.4526 16.7239 67.1489 17.939 66.5413 18.9825C65.9469 20.0127 65.095 20.8118 63.9855 21.3797C62.8893 21.9477 61.6147 22.2316 60.1618 22.2316H55.3277V8.40284H60.1618ZM60.0628 19.874C61.5156 19.874 62.6383 19.4778 63.4308 18.6853C64.2233 17.8928 64.6195 16.7767 64.6195 15.337C64.6195 13.8974 64.2233 12.7747 63.4308 11.969C62.6383 11.1501 61.5156 10.7407 60.0628 10.7407H58.1014V19.874H60.0628ZM72.3026 10.6416V14.1087H76.9584V16.3078H72.3026V19.9731H77.5527V22.2316H69.5289V8.38303H77.5527V10.6416H72.3026Z" fill="#0078D7"/>
<path d="M28.8344 41.2724C28.8344 38.4987 29.3892 36.0288 30.4986 33.8627C31.6345 31.6966 33.2459 30.0192 35.3328 28.8305C37.4196 27.6153 39.8763 27.0078 42.7028 27.0078C45.1331 27.0078 47.2992 27.4701 49.2012 28.3946C51.1296 29.2928 52.6881 30.5739 53.8768 32.2381C55.092 33.9024 55.8976 35.8439 56.2939 38.0629H47.0219C46.5992 37.1383 45.9916 36.4251 45.1992 35.9232C44.4331 35.3949 43.5482 35.1307 42.5443 35.1307C41.065 35.1307 39.8895 35.6854 39.0178 36.7949C38.1725 37.9044 37.7498 39.3969 37.7498 41.2724C37.7498 43.148 38.1725 44.6405 39.0178 45.7499C39.8895 46.8594 41.065 47.4142 42.5443 47.4142C43.5482 47.4142 44.4331 47.1632 45.1992 46.6613C45.9916 46.133 46.5992 45.4065 47.0219 44.482H56.2939C55.8976 46.7009 55.092 48.6425 53.8768 50.3067C52.6881 51.9709 51.1296 53.2653 49.2012 54.1899C47.2992 55.088 45.1331 55.5371 42.7028 55.5371C39.8763 55.5371 37.4196 54.9427 35.3328 53.754C33.2459 52.5389 31.6345 50.8482 30.4986 48.6821C29.3892 46.516 28.8344 44.0461 28.8344 41.2724ZM77.4503 51.0992H68.0991L66.7122 55.339H57.4798L67.7424 27.2851H77.8862L88.1092 55.339H78.8372L77.4503 51.0992ZM75.3106 44.482L72.7747 36.676L70.2388 44.482H75.3106ZM101.084 55.6163C97.7288 55.6163 94.9551 54.8371 92.7625 53.2785C90.5964 51.6935 89.4209 49.3821 89.236 46.3443H98.5873C98.7194 47.9557 99.4326 48.7614 100.727 48.7614C101.202 48.7614 101.599 48.6557 101.916 48.4444C102.259 48.2066 102.431 47.85 102.431 47.3745C102.431 46.7141 102.074 46.1858 101.361 45.7896C100.648 45.3669 99.5383 44.8914 98.0325 44.3631C96.2363 43.7291 94.7437 43.1083 93.555 42.5008C92.3927 41.8932 91.3889 41.0083 90.5436 39.846C89.6983 38.6837 89.2888 37.1912 89.3153 35.3684C89.3153 33.5457 89.7775 32.0004 90.7021 30.7324C91.6531 29.438 92.9342 28.4607 94.5456 27.8003C96.1834 27.1399 98.0193 26.8097 100.053 26.8097C103.487 26.8097 106.208 27.6021 108.216 29.1871C110.25 30.7721 111.32 33.0042 111.425 35.8836H101.955C101.929 35.0911 101.731 34.5231 101.361 34.1797C100.991 33.8363 100.542 33.6646 100.014 33.6646C99.6439 33.6646 99.3401 33.7967 99.1024 34.0609C98.8646 34.2986 98.7458 34.642 98.7458 35.0911C98.7458 35.7251 99.0892 36.2534 99.776 36.676C100.489 37.0723 101.612 37.561 103.144 38.1421C104.914 38.8025 106.367 39.4365 107.503 40.0441C108.665 40.6517 109.669 41.497 110.514 42.58C111.359 43.6631 111.782 45.0235 111.782 46.6613C111.782 48.3783 111.359 49.9237 110.514 51.2973C109.669 52.6445 108.44 53.7012 106.829 54.4672C105.218 55.2333 103.303 55.6163 101.084 55.6163ZM123.669 27.2851V55.339H114.873V27.2851H123.669ZM154.547 55.339H145.75L136.439 41.2328V55.339H127.642V27.2851H136.439L145.75 41.629V27.2851H154.547V55.339ZM172.191 55.6163C169.55 55.6163 167.12 54.9956 164.901 53.754C162.708 52.5124 160.965 50.7954 159.67 48.6029C158.376 46.4103 157.729 43.9404 157.729 41.1932C157.729 38.4459 158.376 35.976 159.67 33.7835C160.965 31.591 162.708 29.8871 164.901 28.672C167.12 27.4304 169.55 26.8097 172.191 26.8097C174.833 26.8097 177.25 27.4304 179.443 28.672C181.635 29.8871 183.365 31.591 184.633 33.7835C185.928 35.976 186.575 38.4459 186.575 41.1932C186.575 43.9404 185.928 46.4103 184.633 48.6029C183.365 50.7954 181.622 52.5124 179.403 53.754C177.21 54.9956 174.807 55.6163 172.191 55.6163ZM172.191 47.4142C173.935 47.4142 175.282 46.8594 176.233 45.7499C177.184 44.6141 177.66 43.0951 177.66 41.1932C177.66 39.2648 177.184 37.7459 176.233 36.6364C175.282 35.5005 173.935 34.9326 172.191 34.9326C170.422 34.9326 169.061 35.5005 168.11 36.6364C167.159 37.7459 166.684 39.2648 166.684 41.1932C166.684 43.0951 167.159 44.6141 168.11 45.7499C169.061 46.8594 170.422 47.4142 172.191 47.4142Z" fill="#0078D7"/>
<rect x="164" y="35.453" width="14.3087" height="14.3087" fill="#0078D7"/>
<path d="M172.713 50.5112L171.45 49.361C166.962 45.2917 164 42.6079 164 39.3142C164 36.6304 166.108 34.5217 168.792 34.5217C170.308 34.5217 171.763 35.2275 172.713 36.3428C173.663 35.2275 175.118 34.5217 176.634 34.5217C179.318 34.5217 181.427 36.6304 181.427 39.3142C181.427 42.6079 178.464 45.2917 173.977 49.3697L172.713 50.5112Z" fill="#001627"/>
</svg>
