<svg width="40" height="40" viewBox="0 0 40 40" fill="none" xmlns="http://www.w3.org/2000/svg">
<path d="M5.88211 21.2258L0.00921631 21.248C0.177263 23.9962 0.897654 26.6387 2.11851 29.0458L7.20429 26.0866C6.49008 24.5915 6.03094 22.9524 5.88211 21.2258Z" fill="#14872F"/>
<path d="M20.0015 8.17279C13.4808 8.17279 8.17584 13.4778 8.17584 19.9985C8.17584 26.5192 13.4808 31.8242 20.0015 31.8242C26.5222 31.8242 31.8272 26.5192 31.8272 19.9985C31.8272 13.4778 26.5222 8.17279 20.0015 8.17279ZM25.5102 23.1971C24.7654 24.4136 23.6069 25.0891 22.2482 25.0993C21.8852 25.1024 21.5251 25.0565 21.1754 24.9654V26.3367H18.8279V24.965C18.4877 25.0535 18.1378 25.0994 17.7856 25.0994C17.7755 25.0994 17.7654 25.0994 17.7551 25.0993C16.3963 25.0892 15.2378 24.4137 14.493 23.1972C13.7357 21.9601 13.7115 20.4392 14.4281 19.1286C14.9385 18.1953 15.712 17.4676 16.3944 16.8254C16.5067 16.7198 16.618 16.6151 16.7265 16.5109C17.1475 16.1068 17.5699 15.7204 17.9786 15.3469C18.3768 14.9829 18.7885 14.6064 19.1887 14.2221L20.0018 13.4415L20.8148 14.2221C21.215 14.6065 21.6268 14.9828 22.025 15.3469C22.4336 15.7204 22.8561 16.1067 23.277 16.5109C23.3856 16.6152 23.4969 16.7199 23.6092 16.8255C24.2916 17.4676 25.0651 18.1953 25.5753 19.1285H25.5754C26.2917 20.4391 26.2675 21.9601 25.5102 23.1971Z" fill="#14872F"/>
<path d="M26.0735 32.8033C24.5776 33.5155 22.938 33.9729 21.2111 34.1195L21.226 39.9923C23.9747 39.8277 26.6182 39.1108 29.0265 37.8931L26.0735 32.8033Z" fill="#14872F"/>
<path d="M23.5153 20.2549C23.1841 19.6493 22.5823 19.0829 22.0002 18.5353C21.8821 18.4241 21.765 18.314 21.6508 18.2042C21.2505 17.8198 20.8387 17.4435 20.4405 17.0793C20.2957 16.9469 20.1491 16.8129 20.0015 16.677C19.8538 16.8129 19.7072 16.9468 19.5624 17.0793C19.1642 17.4433 18.7525 17.8198 18.3523 18.2042C18.238 18.3138 18.121 18.424 18.0029 18.5351C17.4208 19.0829 16.8189 19.6492 16.4876 20.255C16.1701 20.8355 16.1728 21.445 16.4949 21.9714C16.8184 22.4997 17.2244 22.7477 17.7725 22.7518C18.123 22.7547 18.4708 22.6518 18.7829 22.455L20.0015 21.6915L21.2171 22.453C21.5319 22.6517 21.8807 22.7544 22.2305 22.7518C22.7786 22.7477 23.1845 22.4996 23.508 21.9713C23.8302 21.4451 23.8328 20.8355 23.5153 20.2549Z" fill="#14872F"/>
<path d="M18.8635 34.1258C17.1353 33.9878 15.4937 33.5381 13.9946 32.8337L11.0674 37.9383C13.4811 39.1432 16.1278 39.8474 18.8784 39.9984L18.8635 34.1258Z" fill="#14872F"/>
<path d="M21.1752 0.00152588V5.87426C22.9028 6.0166 24.5434 6.47004 26.0409 7.17848L28.9812 2.08098C26.5702 0.869573 23.925 0.159338 21.1752 0.00152588Z" fill="#14872F"/>
<path d="M2.05055 11.0873C0.848906 13.5021 0.147656 16.1496 0 18.9006L5.87258 18.8784C6.00836 17.1498 6.45617 15.5077 7.15867 14.0078L2.05055 11.0873Z" fill="#14872F"/>
<path d="M8.90564 3.31311C7.814 4.04233 6.78611 4.88452 5.83674 5.83373C4.84463 6.82584 3.97064 7.90444 3.21924 9.05139L8.32697 11.9717C9.28689 10.5799 10.4887 9.36741 11.8716 8.39553L8.90564 3.31311Z" fill="#14872F"/>
<path d="M8.3884 28.1137L3.30231 31.0731C4.03473 32.1726 4.88137 33.2078 5.83684 34.1632C6.82285 35.1493 7.89418 36.0186 9.03317 36.7669L11.96 31.6627C10.5695 30.7011 9.35856 29.4978 8.3884 28.1137Z" fill="#14872F"/>
<path d="M31.6556 28.0547C30.6922 29.444 29.4874 30.6534 28.1021 31.6219L31.0549 36.7115C32.1624 35.9759 33.2048 35.1247 34.1663 34.1632C35.1462 33.1833 36.011 32.1191 36.7562 30.988L31.6556 28.0547Z" fill="#14872F"/>
<path d="M10.9315 2.12715L13.897 7.20879C15.412 6.4827 17.0753 6.01864 18.8277 5.87426V0.00152588C16.0436 0.161292 13.3668 0.88801 10.9315 2.12715Z" fill="#14872F"/>
<path d="M37.9079 10.996L32.814 13.9427C33.5242 15.4395 33.9797 17.0796 34.1241 18.8068L39.9968 18.7994C39.8357 16.0502 39.1223 13.4057 37.9079 10.996Z" fill="#14872F"/>
<path d="M34.1273 21.1543C33.9872 22.8822 33.5356 24.5233 32.8292 26.0216L37.9303 28.9552C39.1383 26.5429 39.8456 23.897 40 21.1469L34.1273 21.1543Z" fill="#14872F"/>
<path d="M34.1663 5.83378C33.1924 4.85996 32.1356 3.9998 31.0124 3.25769L28.0725 8.35464C29.4605 9.31972 30.6684 10.5261 31.6352 11.9128L36.7285 8.96644C35.9896 7.85113 35.1339 6.80144 34.1663 5.83378Z" fill="#14872F"/>
</svg>
